<svg aria-hidden="true" style="position: absolute; width: 0; height: 0; overflow: hidden;" version="1.1" xmlns="http://www.w3.org/2000/svg" xmlns:xlink="http://www.w3.org/1999/xlink">
<defs>
<symbol id="icon-d-square" viewBox="0 0 32 32">
<path fill="#9197b3" style="fill: var(--color1, #9197b3)" d="M20.465 32h-8.93c-8.082 0-11.535-3.453-11.535-11.535v-8.93c0-8.082 3.453-11.535 11.535-11.535h8.93c8.082 0 11.535 3.453 11.535 11.535v8.93c0 8.082-3.453 11.535-11.535 11.535zM11.535 2.233c-6.861 0-9.302 2.441-9.302 9.302v8.93c0 6.861 2.441 9.302 9.302 9.302h8.93c6.861 0 9.302-2.441 9.302-9.302v-8.93c0-6.861-2.441-9.302-9.302-9.302h-8.93z"></path>
<path fill="#9197b3" style="fill: var(--color1, #9197b3)" d="M16.001 17.607c-0.194 0-0.387-0.045-0.566-0.149l-7.888-4.554c-0.536-0.313-0.714-0.997-0.402-1.518 0.313-0.536 0.997-0.714 1.518-0.402l7.323 4.242 7.278-4.212c0.536-0.313 1.22-0.119 1.518 0.402s0.119 1.22-0.402 1.518l-7.829 4.525c-0.164 0.089-0.357 0.149-0.551 0.149z"></path>
<path fill="#9197b3" style="fill: var(--color1, #9197b3)" d="M16 25.704c-0.61 0-1.116-0.506-1.116-1.116v-8.097c0-0.61 0.506-1.116 1.116-1.116s1.116 0.506 1.116 1.116v8.097c0 0.61-0.506 1.116-1.116 1.116z"></path>
<path fill="#9197b3" style="fill: var(--color1, #9197b3)" d="M16 26.046c-0.863 0-1.711-0.194-2.396-0.566l-4.763-2.649c-1.429-0.789-2.53-2.679-2.53-4.316v-5.046c0-1.622 1.116-3.513 2.53-4.316l4.763-2.649c1.369-0.759 3.423-0.759 4.792 0l4.763 2.649c1.429 0.789 2.53 2.679 2.53 4.316v5.046c0 1.622-1.116 3.513-2.53 4.316l-4.763 2.649c-0.685 0.387-1.533 0.566-2.396 0.566zM16 8.186c-0.491 0-0.967 0.089-1.31 0.283l-4.763 2.649c-0.729 0.402-1.384 1.533-1.384 2.352v5.046c0 0.833 0.655 1.95 1.384 2.352l4.763 2.649c0.685 0.387 1.935 0.387 2.62 0l4.763-2.649c0.729-0.402 1.384-1.533 1.384-2.352v-5.046c0-0.833-0.655-1.95-1.384-2.352l-4.763-2.649c-0.342-0.194-0.819-0.283-1.31-0.283z"></path>
</symbol>
<symbol id="icon-arrow-left" viewBox="0 0 32 32">
<path fill="#404b52" style="fill: var(--color2, #404b52)" d="M19.031 32l-16.211-16 16.211-16h10.15l-16.282 16 16.282 16h-10.15z"></path>
</symbol>
<symbol id="icon-arrow-right" viewBox="0 0 32 32">
<path fill="#404b52" style="fill: var(--color2, #404b52)" d="M2.819 0h10.15l16.211 16-16.211 16h-10.15l16.282-16-16.282-16z"></path>
</symbol>
<symbol id="icon-chevron-right" viewBox="0 0 32 32">
<path fill="none" stroke="#9197b3" style="stroke: var(--color1, #9197b3)" stroke-linejoin="round" stroke-linecap="round" stroke-miterlimit="4" stroke-width="4" d="M9 30l14-14-14-14"></path>
</symbol>
<symbol id="icon-discount-shape" viewBox="0 0 32 32">
<path fill="#9197b3" style="fill: var(--color1, #9197b3)" d="M16 31.978c-0.938 0-1.816-0.357-2.471-1.027l-2.262-2.262c-0.179-0.179-0.655-0.372-0.893-0.372h-3.215c-1.935 0-3.498-1.563-3.498-3.498v-3.215c0-0.238-0.193-0.714-0.372-0.893l-2.262-2.262c-0.655-0.655-1.027-1.533-1.027-2.471s0.357-1.816 1.027-2.471l2.262-2.262c0.179-0.179 0.372-0.655 0.372-0.893v-3.215c0-1.935 1.563-3.498 3.498-3.498h3.215c0.238 0 0.714-0.194 0.893-0.372l2.262-2.262c1.31-1.31 3.632-1.31 4.941 0l2.262 2.262c0.179 0.179 0.655 0.372 0.893 0.372h3.215c1.935 0 3.498 1.563 3.498 3.498v3.215c0 0.238 0.194 0.714 0.372 0.893l2.262 2.262c0.655 0.655 1.027 1.533 1.027 2.471s-0.357 1.816-1.027 2.471l-2.262 2.262c-0.179 0.179-0.372 0.655-0.372 0.893v3.215c0 1.935-1.563 3.498-3.498 3.498h-3.215c-0.238 0-0.714 0.194-0.893 0.372l-2.262 2.262c-0.655 0.67-1.533 1.027-2.471 1.027zM4.867 19.133c0.595 0.595 1.027 1.637 1.027 2.471v3.215c0 0.7 0.566 1.265 1.265 1.265h3.215c0.833 0 1.875 0.431 2.471 1.027l2.262 2.262c0.476 0.476 1.31 0.476 1.786 0l2.262-2.262c0.595-0.595 1.637-1.027 2.471-1.027h3.215c0.7 0 1.265-0.566 1.265-1.265v-3.215c0-0.833 0.432-1.875 1.027-2.471l2.262-2.262c0.238-0.238 0.372-0.551 0.372-0.893s-0.134-0.655-0.372-0.893l-2.262-2.262c-0.595-0.595-1.027-1.637-1.027-2.471v-3.215c0-0.7-0.566-1.265-1.265-1.265h-3.215c-0.833 0-1.875-0.432-2.471-1.027l-2.262-2.262c-0.476-0.476-1.31-0.476-1.786 0l-2.262 2.262c-0.595 0.595-1.637 1.027-2.471 1.027h-3.215c-0.7 0-1.265 0.566-1.265 1.265v3.215c0 0.833-0.432 1.875-1.027 2.471l-2.262 2.262c-0.238 0.238-0.372 0.551-0.372 0.893s0.134 0.655 0.372 0.893l2.262 2.262z"></path>
<path fill="#9197b3" style="fill: var(--color1, #9197b3)" d="M20.465 21.931c-0.833 0-1.503-0.67-1.503-1.488s0.67-1.488 1.488-1.488c0.819 0 1.488 0.67 1.488 1.488s-0.655 1.488-1.474 1.488z"></path>
<path fill="#9197b3" style="fill: var(--color1, #9197b3)" d="M11.55 13.001c-0.833 0-1.503-0.67-1.503-1.488s0.67-1.488 1.488-1.488c0.819 0 1.488 0.67 1.488 1.488s-0.655 1.488-1.473 1.488z"></path>
<path fill="#9197b3" style="fill: var(--color1, #9197b3)" d="M11.534 21.558c-0.283 0-0.566-0.104-0.789-0.327-0.432-0.432-0.432-1.146 0-1.578l8.93-8.93c0.432-0.432 1.146-0.432 1.578 0s0.432 1.146 0 1.578l-8.93 8.93c-0.223 0.223-0.506 0.327-0.789 0.327z"></path>
</symbol>
<symbol id="icon-key-square" viewBox="0 0 32 32">
<path fill="none" stroke="#9197b3" style="stroke: var(--color1, #9197b3)" stroke-linejoin="round" stroke-linecap="round" stroke-miterlimit="4" stroke-width="2" d="M11.5 31h9c7.5 0 10.5-3 10.5-10.5v-9c0-7.5-3-10.5-10.5-10.5h-9c-7.5 0-10.5 3-10.5 10.5v9c0 7.5 3 10.5 10.5 10.5z"></path>
<path fill="none" stroke="#9197b3" style="stroke: var(--color1, #9197b3)" stroke-linejoin="round" stroke-linecap="round" stroke-miterlimit="10" stroke-width="2" d="M22.42 18.415c-1.695 1.695-4.125 2.22-6.27 1.545l-3.885 3.87c-0.27 0.285-0.825 0.465-1.23 0.405l-1.8-0.24c-0.6-0.075-1.14-0.645-1.23-1.23l-0.24-1.8c-0.060-0.39 0.135-0.945 0.405-1.23l3.87-3.87c-0.66-2.145-0.15-4.575 1.545-6.27 2.43-2.43 6.39-2.43 8.835 0 2.43 2.415 2.43 6.375 0 8.82z"></path>
<path fill="none" stroke="#9197b3" style="stroke: var(--color1, #9197b3)" stroke-linejoin="round" stroke-linecap="round" stroke-miterlimit="10" stroke-width="2" d="M13.675 22.42l-1.275-1.29"></path>
<path fill="none" stroke="#9197b3" style="stroke: var(--color1, #9197b3)" stroke-linejoin="round" stroke-linecap="round" stroke-miterlimit="4" stroke-width="2.6667" d="M18.092 14.050h0.014"></path>
</symbol>
<symbol id="icon-logo" viewBox="0 0 32 32">
<path d="M16 32c-1.008 0-2.031-0.226-2.829-0.692l-8.276-4.77c-3.37-2.272-3.581-2.618-3.581-6.184v-8.697c0-3.566 0.196-3.912 3.506-6.154l8.336-4.815c1.58-0.918 4.063-0.918 5.642 0l8.306 4.785c3.37 2.272 3.581 2.618 3.581 6.184v8.682c0 3.566-0.196 3.912-3.506 6.154l-8.336 4.815c-0.813 0.467-1.836 0.692-2.844 0.692zM16 2.268c-0.632 0-1.249 0.12-1.685 0.376l-8.275 4.785c-2.453 1.655-2.453 1.655-2.453 4.228v8.682c0 2.573 0 2.573 2.513 4.273l8.215 4.74c0.888 0.512 2.498 0.512 3.385 0l8.276-4.785c2.438-1.655 2.438-1.655 2.438-4.228v-8.682c0-2.573 0-2.573-2.513-4.273l-8.215-4.74c-0.436-0.256-1.053-0.376-1.685-0.376z"></path>
<path d="M16 21.648c-3.115 0-5.642-2.528-5.642-5.642s2.528-5.642 5.642-5.642c3.115 0 5.642 2.528 5.642 5.642s-2.528 5.642-5.642 5.642zM16 12.62c-1.866 0-3.386 1.52-3.386 3.385s1.52 3.386 3.386 3.386c1.866 0 3.385-1.52 3.385-3.386s-1.52-3.386-3.386-3.386z"></path>
</symbol>
<symbol id="icon-message-question" viewBox="0 0 32 32">
<path fill="#9197b3" style="fill: var(--color1, #9197b3)" d="M10.046 31.353c-0.417 0-0.848-0.104-1.235-0.313-0.848-0.447-1.369-1.34-1.369-2.292v-2.113c-4.495-0.461-7.442-3.766-7.442-8.499v-8.93c0-5.12 3.438-8.558 8.558-8.558h14.884c5.12 0 8.558 3.438 8.558 8.558v8.93c0 5.12-3.438 8.558-8.558 8.558h-5.611l-6.34 4.227c-0.432 0.283-0.938 0.431-1.444 0.431zM8.558 2.865c-3.84 0-6.326 2.486-6.326 6.326v8.93c0 3.84 2.486 6.326 6.326 6.326 0.61 0 1.116 0.506 1.116 1.116v3.17c0 0.194 0.119 0.283 0.194 0.327s0.223 0.089 0.387-0.015l6.623-4.406c0.179-0.119 0.402-0.194 0.625-0.194h5.953c3.84 0 6.326-2.486 6.326-6.326v-8.93c0-3.84-2.486-6.326-6.326-6.326h-14.899z"></path>
<path fill="#9197b3" style="fill: var(--color1, #9197b3)" d="M16 16.156c-0.61 0-1.116-0.506-1.116-1.116v-0.313c0-1.726 1.265-2.575 1.741-2.902 0.551-0.372 0.729-0.625 0.729-1.012 0-0.744-0.61-1.354-1.354-1.354s-1.354 0.61-1.354 1.354c0 0.61-0.506 1.116-1.116 1.116s-1.116-0.506-1.116-1.116c0-1.98 1.607-3.587 3.587-3.587s3.587 1.608 3.587 3.587c0 1.697-1.25 2.545-1.712 2.858-0.58 0.387-0.759 0.64-0.759 1.057v0.313c0 0.625-0.506 1.116-1.116 1.116z"></path>
<path fill="#9197b3" style="fill: var(--color1, #9197b3)" d="M16 19.863c-0.625 0-1.116-0.506-1.116-1.116s0.506-1.116 1.116-1.116c0.61 0 1.116 0.506 1.116 1.116s-0.491 1.116-1.116 1.116z"></path>
</symbol>
<symbol id="icon-search" viewBox="0 0 32 32">
<path fill="none" stroke="#7e7e7e" style="stroke: var(--color3, #7e7e7e)" stroke-linejoin="round" stroke-linecap="round" stroke-miterlimit="4" stroke-width="2.6667" d="M14.389 27.278c7.118 0 12.889-5.77 12.889-12.889s-5.77-12.889-12.889-12.889c-7.118 0-12.889 5.771-12.889 12.889s5.771 12.889 12.889 12.889z"></path>
<path fill="none" stroke="#7e7e7e" style="stroke: var(--color3, #7e7e7e)" stroke-linejoin="round" stroke-linecap="round" stroke-miterlimit="4" stroke-width="2.6667" d="M30.5 30.5l-7.008-7.008"></path>
</symbol>
<symbol id="icon-user-square" viewBox="0 0 32 32">
<path d="M20.338 31h-8.675c-1.908 0-3.499-0.188-4.843-0.593-0.492-0.145-0.81-0.622-0.781-1.128 0.361-4.323 4.742-7.721 9.961-7.721s9.586 3.383 9.962 7.721c0.043 0.52-0.275 0.983-0.781 1.128-1.345 0.405-2.935 0.593-4.843 0.593zM8.367 28.557c0.954 0.188 2.039 0.275 3.296 0.275h8.675c1.258 0 2.342-0.087 3.296-0.275-0.766-2.776-3.933-4.829-7.634-4.829s-6.867 2.053-7.634 4.829z"></path>
<path stroke-linejoin="round" stroke-linecap="round" stroke-miterlimit="4" stroke-width="2" d="M20.337 1h-8.675c-7.229 0-10.121 2.892-10.121 10.121v8.675c0 5.465 1.648 8.458 5.581 9.571 0.318-3.759 4.178-6.723 8.877-6.723s8.559 2.964 8.877 6.723c3.933-1.113 5.581-4.106 5.581-9.571v-8.675c0-7.229-2.892-10.121-10.121-10.121zM16 18.595c-2.863 0-5.176-2.328-5.176-5.19s2.313-5.176 5.176-5.176c2.863 0 5.176 2.313 5.176 5.176s-2.313 5.19-5.176 5.19z"></path>
<path d="M16 19.68c-3.455 0-6.26-2.819-6.26-6.275s2.805-6.26 6.26-6.26c3.455 0 6.26 2.805 6.26 6.26s-2.805 6.275-6.26 6.275zM16 9.313c-2.255 0-4.092 1.836-4.092 4.092 0 2.27 1.836 4.106 4.092 4.106s4.092-1.836 4.092-4.106c0-2.255-1.836-4.092-4.092-4.092z"></path>
</symbol>
<symbol id="icon-wallet-money" viewBox="0 0 32 32">
<path fill="none" stroke="#9197b3" style="stroke: var(--color1, #9197b3)" stroke-linejoin="round" stroke-linecap="round" stroke-miterlimit="4" stroke-width="2" d="M14.138 22.132v3.029c0 2.566-2.387 4.64-5.326 4.64s-5.341-2.074-5.341-4.64v-3.029c0 2.566 2.387 4.386 5.341 4.386 2.939 0 5.326-1.835 5.326-4.386z"></path>
<path fill="none" stroke="#9197b3" style="stroke: var(--color1, #9197b3)" stroke-linejoin="round" stroke-linecap="round" stroke-miterlimit="4" stroke-width="2" d="M14.135 18.029c0 0.746-0.209 1.432-0.567 2.029-0.88 1.447-2.685 2.357-4.774 2.357s-3.894-0.925-4.774-2.357c-0.358-0.597-0.567-1.283-0.567-2.029 0-1.283 0.597-2.432 1.552-3.267 0.97-0.85 2.297-1.358 3.774-1.358s2.805 0.522 3.775 1.358c0.985 0.82 1.581 1.984 1.581 3.267z"></path>
<path fill="none" stroke="#9197b3" style="stroke: var(--color1, #9197b3)" stroke-linejoin="round" stroke-linecap="round" stroke-miterlimit="4" stroke-width="2" d="M14.138 18.029v4.103c0 2.566-2.387 4.386-5.326 4.386s-5.341-1.835-5.341-4.386v-4.103c0-2.566 2.387-4.64 5.341-4.64 1.477 0 2.805 0.522 3.775 1.358 0.955 0.835 1.552 1.999 1.552 3.282z"></path>
<path fill="none" stroke="#9197b3" style="stroke: var(--color1, #9197b3)" stroke-linejoin="round" stroke-linecap="round" stroke-miterlimit="4" stroke-width="2" d="M30.919 13.344v3.073c0 0.82-0.656 1.492-1.492 1.522h-2.924c-1.611 0-3.088-1.179-3.222-2.79-0.090-0.94 0.268-1.82 0.895-2.432 0.552-0.567 1.313-0.895 2.149-0.895h3.103c0.835 0.030 1.492 0.701 1.492 1.522z"></path>
<path fill="none" stroke="#9197b3" style="stroke: var(--color1, #9197b3)" stroke-linejoin="round" stroke-linecap="round" stroke-miterlimit="4" stroke-width="2" d="M1.081 12.643v-2.984c0-4.058 2.447-6.893 6.251-7.37 0.388-0.060 0.791-0.090 1.208-0.090h13.427c0.388 0 0.761 0.015 1.119 0.075 3.849 0.448 6.34 3.297 6.34 7.385v2.163h-3.103c-0.835 0-1.596 0.328-2.148 0.895-0.627 0.612-0.985 1.492-0.895 2.432 0.134 1.611 1.611 2.79 3.223 2.79h2.924v2.163c0 4.476-2.984 7.459-7.459 7.459h-3.73"></path>
</symbol>
</defs>
</svg>
